<svg xmlns="http://www.w3.org/2000/svg" viewBox="0 0 617.64 338.11"><defs><style>.cls-1{isolation:isolate;}.cls-2{opacity:0.16;}.cls-24,.cls-26,.cls-3,.cls-30{fill:#007ec3;}.cls-11,.cls-12,.cls-14,.cls-4{fill:#e36025;}.cls-15,.cls-5,.cls-8{fill:#f9aa7e;}.cls-16,.cls-19,.cls-32,.cls-33,.cls-37,.cls-6{fill:#fff;}.cls-10,.cls-7{fill:#163966;}.cls-32,.cls-8{opacity:0.42;}.cls-10,.cls-13,.cls-14,.cls-15,.cls-24,.cls-27,.cls-34,.cls-35,.cls-36,.cls-8{mix-blend-mode:multiply;}.cls-21,.cls-28,.cls-9{fill:#b6d8f2;}.cls-9{opacity:0.61;}.cls-11{opacity:0.19;}.cls-12{opacity:0.55;}.cls-15{opacity:0.3;}.cls-16,.cls-19,.cls-28{opacity:0.49;}.cls-17,.cls-18,.cls-20,.cls-25{fill:none;}.cls-17,.cls-18,.cls-19,.cls-20{stroke:#fff;}.cls-17,.cls-19,.cls-25{stroke-miterlimit:10;}.cls-17{stroke-width:0.82px;}.cls-18,.cls-20{stroke-linecap:round;stroke-linejoin:round;}.cls-18,.cls-19,.cls-25{stroke-width:0.83px;}.cls-20{stroke-width:1.1px;}.cls-22,.cls-27{fill:#5b9ed6;}.cls-23,.cls-31,.cls-34,.cls-35,.cls-36{fill:#8cbce5;}.cls-24{opacity:0.6;}.cls-25{stroke:#007ec3;}.cls-26{opacity:0.78;}.cls-29{opacity:0.85;}.cls-30{opacity:0.46;}.cls-31{opacity:0.51;}.cls-33{opacity:0.73;}.cls-34{opacity:0.77;}.cls-35,.cls-37{opacity:0.43;}.cls-36{opacity:0.65;}</style></defs><g class="cls-1"><g id="Layer_1" data-name="Layer 1"><g class="cls-2"><path class="cls-3" d="M603.73,244.34q-.63-2.29-1.38-4.59c-21.92-67.5-108.9-76.77-142.64-136C421.28,36.28,327.68,8.09,256,48.43a139.65,139.65,0,0,0-62.13,73.47c-10.91,30,4.71,74.32-20.88,97.16-18.43,16.46-40.06,26-54,47.23-10.07,15.4-15.17,34.16-11.21,51.78,9.6,42.7,52.56,40.79,89.46,36.05a980.09,980.09,0,0,1,180.65-6.34c56.86,3.25,116.25,22.43,171.84,3.72C598.52,335.09,616.21,289.21,603.73,244.34Z" transform="translate(-55.35 -29.79)"/></g><ellipse class="cls-4" cx="283.03" cy="118.39" rx="66.28" ry="65.72" transform="translate(98.65 366.94) rotate(-87.83)"/><path class="cls-5" d="M293.08,192.57c-6.35,3-6.39,18.24-11.31,43s-7.74,70.24-6.21,82.62c1.86,15,19,16.27,22.58-8.9,2.61-18.41,12.1-86.33,12.28-97.87C310.66,196,293.08,192.57,293.08,192.57Z" transform="translate(-55.35 -29.79)"/><path class="cls-5" d="M377.72,295.77l-1.1-5s-25.53,3.6-47.23,4.49h0l-2.73.09-.79,0-1.91,0h-.89l-1.85,0h-.77l-2.51,0c-11.68-.2-20.38-.19-26.7-.08-2.11,0-3.95.07-5.55.12l-2.22.07c-4.76.18-6.68.38-6.68.38s-5.85,9.38-4,25.31c8.55,9.05,36.7.43,55.19-5.12A288.2,288.2,0,0,0,377.72,295.77Z" transform="translate(-55.35 -29.79)"/><path class="cls-5" d="M371.08,293.47l.19.42a2,2,0,0,0,1.61,1.12l5.48.47a39.6,39.6,0,0,0,5.05-1.53c1.37-1.23,2.74-2.46,4.09-3.72A4.68,4.68,0,0,1,387,288c.25-12.25,14.35-14,13.56-18.43v-.06a1.89,1.89,0,0,0-3-1c-.34.29-.75.64-1.22,1a1.73,1.73,0,0,1-.83.36,17.1,17.1,0,0,0-8.43,4.51,1.75,1.75,0,0,1-.64.39,18.78,18.78,0,0,0-7.68,4.86c-1.26,1.41-9.4,10.29-10.92,12.9C367.53,293,370.83,292.93,371.08,293.47Z" transform="translate(-55.35 -29.79)"/><path class="cls-5" d="M376.38,294.83l19.2-3a1.84,1.84,0,0,0,1.74-2.06l-.08-.65a2.06,2.06,0,0,0-2.17-1.79l-11.39.32Z" transform="translate(-55.35 -29.79)"/><path class="cls-6" d="M329.31,293.31l-2.71.09-.79,0-1.9.05h-3.46l-2.48,0c-5.57-.1-10.78-.15-15.6-.16,3.66-26.38,9.88-72.44,10-81.91.21-13.52-12.3-19.52-18.95-20.8l-.63-.12-.58.28c-5.46,2.59-6.83,11.19-9.1,25.43-.89,5.54-1.89,11.81-3.3,18.93a421.57,421.57,0,0,0-6.14,46.29c-.88,10.15-6.56,31.89-1.55,40.93,10.09,18.24,42.56-.13,55.59-4.05l.78-.23c5.14-1.53,10.52-3.33,16-5.36l1.21-.45.08-1.3c.31-5.34.55-10.92.71-16.57l.07-2.22-2.2.18C338.89,292.8,333.82,293.12,329.31,293.31Z" transform="translate(-55.35 -29.79)"/><path class="cls-6" d="M397.5,276c2.86-1.92,5.56-3.74,5-6.85A3.77,3.77,0,0,0,400,266.3a3.83,3.83,0,0,0-3.77.67c-.32.28-.71.61-1.11.92a19,19,0,0,0-9.42,5,20.46,20.46,0,0,0-8.46,5.39l-.58.65c-4.24,4.68-9.27,10.35-10.57,12.58a2.08,2.08,0,0,0-.08,2c.55,1.15,1.68,1.3,3,1.47l.63.09a3.94,3.94,0,0,0,2,1.69l-1.05,1,3.9-.6,3.73.32.31,0,.29-.06a42.62,42.62,0,0,0,5.31-1.61l.35-.14.1-.09,11.26-1.74a3.87,3.87,0,0,0,2.62-1.37,3.82,3.82,0,0,0,.85-2.89l-.07-.65a4,4,0,0,0-4.2-3.56l-5.7.16C390.42,280.77,394.29,278.15,397.5,276Z" transform="translate(-55.35 -29.79)"/><path class="cls-7" d="M360.4,304.11c10.54-4.65,17.32-8.34,17.32-8.34l-1.1-5s-8.08,1.14-19,2.3C358.61,296.75,359.53,300.42,360.4,304.11Z" transform="translate(-55.35 -29.79)"/><path class="cls-7" d="M371.08,293.47l.19.42a2,2,0,0,0,1.61,1.12l5.48.47a39.6,39.6,0,0,0,5.05-1.53c1.37-1.23,2.74-2.46,4.09-3.72A4.68,4.68,0,0,1,387,288c.25-12.25,14.35-14,13.56-18.43v-.06a1.89,1.89,0,0,0-3-1c-.34.29-.75.64-1.22,1a1.73,1.73,0,0,1-.83.36,17.1,17.1,0,0,0-8.43,4.51,1.75,1.75,0,0,1-.64.39,18.78,18.78,0,0,0-7.68,4.86c-1.26,1.41-9.4,10.29-10.92,12.9C367.53,293,370.83,292.93,371.08,293.47Z" transform="translate(-55.35 -29.79)"/><path class="cls-7" d="M376.38,294.83l19.2-3a1.84,1.84,0,0,0,1.74-2.06l-.08-.65a2.06,2.06,0,0,0-2.17-1.79l-11.39.32Z" transform="translate(-55.35 -29.79)"/><path class="cls-5" d="M278.3,139.19c-.16.71-29.13,56.79-29.13,56.79s5,13.54,11.26,16.35,9.76-6.18,9.76-6.18l17.1-35.2Z" transform="translate(-55.35 -29.79)"/><path class="cls-8" d="M287.29,171l-9-31.76c-.09.39-8.76,17.27-16.61,32.53,4.1,9.22,7.87,18.72,11.45,28.36Z" transform="translate(-55.35 -29.79)"/><path class="cls-5" d="M296.93,364.26c-18.69.81-76-26.29-94.24-29.36,0,0,19.49-25.32,21.12-28.34,4.94-9.17,4.65-15,3-21.87-2.57-10.77-9.94-40.76-11-53.27a138.89,138.89,0,0,1,1.65-29.49c2.89-16.36,40.91-14.63,41.18-14.05,0,0,34.36,4.4,35.94,7.17,8.74,15.29,14.76,42.86,6.11,78.23C288,325.38,296.93,364.26,296.93,364.26Z" transform="translate(-55.35 -29.79)"/><path class="cls-7" d="M202.61,335.09c18.23,3.07,75.56,30.18,94.24,29.35,0,0-9.26-39,3.83-91.07,10.23-40.68,2.88-63.18-5.85-78.48-.78-1.36-6-2.71-10.88-3.89-1.79,9.08-6.05,16.77-17.23,17.7-12.28,1-22.86-8.06-27.49-19.24-8.23,0-19.91,2-21.76,12.51a139.49,139.49,0,0,0-1.67,29.52c1,12.53,8.4,42.55,11,53.33,1.64,6.9,1.94,12.71-3,21.89C222.12,309.74,202.61,335.09,202.61,335.09Z" transform="translate(-55.35 -29.79)"/><path class="cls-9" d="M274.64,214.25c10-3.73,12.9-11.34,14.62-21.81-1.63-.51-3.48-1-5.31-1.44-1.78,9.06-6,16.75-17.22,17.67-12.27,1-22.85-8.06-27.49-19.23a44.09,44.09,0,0,0-6.14.4C236.92,208,256.2,221.1,274.64,214.25Z" transform="translate(-55.35 -29.79)"/><path class="cls-5" d="M327,86c11.66,7.91,17.08,19.64,17.81,33.53.39,7.28-.14,13.51-3,20-2.35,5.28-4.53,8.38-6,13.82-1.87,7.11-2.44,15.81-7.51,21.44-5.3,5.9-14.49,9.38-22,13.4-5.25,2.83-11.64,3.09-16.58-.27-4.54-3.08-10.55-9.57-13.78-13.93a102.75,102.75,0,0,1-9.42-15.71c-5.63-11.26-6.83-22.63-6.77-35.32,0-8.85,2.14-17.73,7.08-25.13A43.11,43.11,0,0,1,327,86Z" transform="translate(-55.35 -29.79)"/><path class="cls-10" d="M331.47,152.76a3.66,3.66,0,0,1-5,1.44,3.71,3.71,0,0,1-1.09-5.11,3.64,3.64,0,0,1,5-1.44A3.72,3.72,0,0,1,331.47,152.76Z" transform="translate(-55.35 -29.79)"/><path class="cls-11" d="M283.83,150.77c-1.63,3.7,1.66,8.77,7.36,11.32s11.63,1.62,13.26-2.08-1.66-8.76-7.36-11.32S285.46,147.07,283.83,150.77Z" transform="translate(-55.35 -29.79)"/><path class="cls-11" d="M317.16,157.59c-1.23,3.65,1.19,7.77,5.39,9.21s8.62-.35,9.85-4-1.19-7.77-5.4-9.21S318.39,153.94,317.16,157.59Z" transform="translate(-55.35 -29.79)"/><path class="cls-12" d="M305.81,162.84a4.38,4.38,0,0,1,2.41,1.59c1.17-.63,1.66.12,2.62.85,2.08,1.59,2.07,2.35,2.07,2.35a7.43,7.43,0,0,1-4,3c-3.12.58-5.84-.87-7.76-3.67a4.89,4.89,0,0,1-.56-4.5C300.92,161.52,304.31,162.16,305.81,162.84Z" transform="translate(-55.35 -29.79)"/><g class="cls-13"><path class="cls-4" d="M318.32,144.69a6.77,6.77,0,0,0-.29,2.43l-.18,2.73c-.12,1.86-.23,3.72-.34,5.58-.22,3.68-.44,7.37-.67,11l.92-.69a5.86,5.86,0,0,1-2.78-1.44c-.55-.45-1.63.12-1.12.82a5.38,5.38,0,0,0,3.51,2,.73.73,0,0,0,.92-.68q.21-5.48.44-10.93c.07-1.82.15-3.64.21-5.46l.1-2.61,0-1.37a3.35,3.35,0,0,0-.06-1.34c-.1-.28-.55-.44-.71-.1Z" transform="translate(-55.35 -29.79)"/></g><path class="cls-14" d="M314.2,133.6l-25.62-7.95S316.05,123.29,314.2,133.6Z" transform="translate(-55.35 -29.79)"/><path class="cls-14" d="M339.83,144.94l-13.77-7.37s1.23-7.52,11,2.22C340.31,143.08,339.57,144.11,339.83,144.94Z" transform="translate(-55.35 -29.79)"/><g class="cls-13"><path class="cls-4" d="M312.51,167.11a11,11,0,0,1-11-4.76c-.51-.77-1.75-.12-1.28.7a10.91,10.91,0,0,0,12.43,4.76.36.36,0,0,0-.17-.7Z" transform="translate(-55.35 -29.79)"/></g><polygon class="cls-15" points="260.23 134.11 260.91 115.81 255.72 131.64 260.23 134.11"/><path class="cls-4" d="M347.54,110.53c-4.06-15.6-10.2-32.77-23.88-42.67C316.09,62.38,307,57.75,297.77,60c-7.28,1.77-12.88,7.17-17.65,12.81-12.79,15.13-29,35.9-22.2,55.85,5.26-11.49,25.56-18,38.38-15.45,8.36,1.66,16.08,6.72,24.48,7.91,11.37,1.6,18.76-4.06,26.81-10.41Z" transform="translate(-55.35 -29.79)"/><path class="cls-5" d="M266,123.52c-5.42-.57-8.49-1.3-11,5.44-2.14,5.82,2.18,7.41,6.89,9.33C263.47,133.41,264.93,128.51,266,123.52Z" transform="translate(-55.35 -29.79)"/><g class="cls-13"><path class="cls-5" d="M262.61,125.9a4,4,0,0,0-4.12,1.77c-.89,1.19-1.36,3-.43,4.34a3.79,3.79,0,0,0,2.78,1.45c.36,0,.44-.56.09-.64a3.83,3.83,0,0,1-2.1-1.1,2.32,2.32,0,0,1-.48-1.65,4.49,4.49,0,0,1,2-3.23,2.91,2.91,0,0,1,2.1-.52c.27.05.39-.35.11-.42Z" transform="translate(-55.35 -29.79)"/></g><path class="cls-7" d="M258.05,136.09l.35.36a1.83,1.83,0,0,0,.8.51,2.57,2.57,0,0,0,2.72-.51l.39-.51a2.4,2.4,0,0,0,.34-1.25l-.09-.67a2.56,2.56,0,0,0-.64-1.1l-.34-.36a1.93,1.93,0,0,0-.81-.51,1.84,1.84,0,0,0-1-.22,1.88,1.88,0,0,0-1,.22,2,2,0,0,0-.8.51l-.39.51a2.53,2.53,0,0,0-.34,1.26l.09.66a2.5,2.5,0,0,0,.64,1.1Z" transform="translate(-55.35 -29.79)"/><g class="cls-13"><path class="cls-7" d="M224.68,246.8a36.88,36.88,0,0,0,4.79-7.23c.68-1.26,1.34-2.53,1.95-3.82a19.29,19.29,0,0,0,1.59-4.12.36.36,0,0,0-.66-.29,34.91,34.91,0,0,0-1.89,3.83c-.61,1.29-1.26,2.57-1.94,3.82-1.37,2.52-3,4.86-4.36,7.39-.17.32.25.71.52.42Z" transform="translate(-55.35 -29.79)"/></g><g class="cls-13"><path class="cls-7" d="M290.81,138.52c1.05,6,9.18,9.26,14.11,5.61.53-.39-.14-1.31-.69-.93-4.55,3.1-11.57.58-13-4.78-.06-.25-.42-.15-.38.1Z" transform="translate(-55.35 -29.79)"/></g><path class="cls-15" d="M291.21,137.91s11.41-7.48,14.55,4.31C305.76,142.22,297.48,148.26,291.21,137.91Z" transform="translate(-55.35 -29.79)"/><g class="cls-13"><path class="cls-7" d="M288.71,140c.13,0,.24.12.38.17l.39.13.75.25c.25.08.5.18.75.25a1.25,1.25,0,0,0,.83,0,.23.23,0,0,0,.06-.37,1.38,1.38,0,0,0-.76-.33c-.26-.07-.53-.09-.79-.14l-.78-.15-.41-.07c-.13,0-.26,0-.39,0s-.15.2,0,.25Z" transform="translate(-55.35 -29.79)"/></g><g class="cls-13"><path class="cls-7" d="M290,142.71a6.77,6.77,0,0,1,1.18-.2c.41,0,.81,0,1.22,0a.32.32,0,0,0,.33-.31.34.34,0,0,0-.32-.33,5.08,5.08,0,0,0-1.29.06,6.52,6.52,0,0,0-1.23.31c-.27.1-.18.52.11.44Z" transform="translate(-55.35 -29.79)"/></g><path class="cls-16" d="M311.15,145.33a12.75,12.75,0,0,0-6.81-16.62,12.58,12.58,0,0,0-16.48,6.87,12.75,12.75,0,0,0,6.81,16.61A12.57,12.57,0,0,0,311.15,145.33Z" transform="translate(-55.35 -29.79)"/><path class="cls-16" d="M289.61,148.32a12.55,12.55,0,0,0,21.54-3,12.75,12.75,0,0,0,.77-7Q300.69,143.13,289.61,148.32Z" transform="translate(-55.35 -29.79)"/><path class="cls-17" d="M311.15,145.33a12.75,12.75,0,0,0-6.81-16.62,12.58,12.58,0,0,0-16.48,6.87,12.75,12.75,0,0,0,6.81,16.61A12.57,12.57,0,0,0,311.15,145.33Z" transform="translate(-55.35 -29.79)"/><path class="cls-16" d="M343.6,157.06a12.75,12.75,0,0,0-6.81-16.62,12.57,12.57,0,0,0-16.48,6.87,12.75,12.75,0,0,0,6.81,16.61A12.58,12.58,0,0,0,343.6,157.06Z" transform="translate(-55.35 -29.79)"/><path class="cls-16" d="M321.81,159.71a12.55,12.55,0,0,0,21.79-2.65,12.78,12.78,0,0,0,.67-7.57Q333.08,154.68,321.81,159.71Z" transform="translate(-55.35 -29.79)"/><path class="cls-17" d="M343.69,157.13a12.75,12.75,0,0,0-6.81-16.61,12.57,12.57,0,0,0-16.48,6.86A12.75,12.75,0,0,0,327.21,164,12.58,12.58,0,0,0,343.69,157.13Z" transform="translate(-55.35 -29.79)"/><polygon class="cls-16" points="207.33 92.97 232.6 106.15 234.92 100.64 207.91 90.68 207.33 92.97"/><polygon class="cls-18" points="207.33 92.97 232.6 106.15 234.92 100.64 207.91 90.68 207.33 92.97"/><path class="cls-19" d="M309.71,132.43l18.11,7.63s-6.61,2.69-7.42,7.32c0,0-4.51-4.09-9.25-2C311.15,145.33,314.65,140.06,309.71,132.43Z" transform="translate(-55.35 -29.79)"/><path class="cls-20" d="M309.71,132.43l18.11,7.63s-6.61,2.69-7.42,7.32c0,0-4.51-4.09-9.25-2C311.15,145.33,314.65,140.06,309.71,132.43Z" transform="translate(-55.35 -29.79)"/><path class="cls-6" d="M297,193.54c-.71-1.22-2.14-2.07-5.13-3l-2.83-.92-.39,2.93c-.88,6.67-1.7,13.46-2.49,20-1.58,13.07-3.2,26.55-5.38,39.76-5.2-11.28-12.3-21.55-19.18-31.51-5.64-8.17-11.47-16.62-16.11-25.44l-.19-.31a32.06,32.06,0,0,1-3.76-6.57l-.63-1.5H239c-13.6,0-29.44,17.4-31.07,26.49-2.14,11.93,5.06,13.17,5.42,17.46,1,11.48,7.29,37.35,10.32,49.79l.73,3c1.64,6.76,1.66,11.68-2.77,19.77-1.12,2-13.42,18-20.91,27.54l-2.53,3.25,4.08.67c7.24,1.2,21.38,6.45,36.34,12,22.44,8.33,45.61,16.93,57.46,16.93l.95,0,3-.13-.7-2.89c0-.09-2.29-9.64-2.95-25.25a220.39,220.39,0,0,1,6.73-63.08C314,229.91,304.81,207,297,193.54Z" transform="translate(-55.35 -29.79)"/><path class="cls-4" d="M223,138.92a40.5,40.5,0,0,0-22.78.46c-4.53,1.44-9,3.91-11.37,8.1-2.76,5-1.85,11.13-.41,16.63,2.64,10.07,7.46,20.47,16.62,25.3a23.15,23.15,0,0,0,23.78-1.66,23.58,23.58,0,0,0,9.31-22.13" transform="translate(-55.35 -29.79)"/><path class="cls-4" d="M223.07,138.69a35.42,35.42,0,0,0-15.58-1.41,33,33,0,0,0-13.59,4.27,16.55,16.55,0,0,0-4.77,4.32,14.38,14.38,0,0,0-2.54,6.45c-.67,4.68.43,9.47,1.72,14,2.35,8.17,6.18,16.47,13.1,21.74a24,24,0,0,0,25.29,2.07A24.14,24.14,0,0,0,239,165.41c-.17-1.14-1.9-.7-1.73.43a22.69,22.69,0,0,1-9,21.27,22.34,22.34,0,0,1-23.77,1.07c-7.11-4.16-11.3-11.8-13.9-19.36a46.24,46.24,0,0,1-2.83-12.8,17,17,0,0,1,.89-6.6,13,13,0,0,1,3.59-5.13c3.31-2.93,7.73-4.47,12-5.39a40.27,40.27,0,0,1,15.08-.37c1.21.2,2.42.4,3.62.63a.24.24,0,0,0,.13-.47Z" transform="translate(-55.35 -29.79)"/><g class="cls-13"><path class="cls-4" d="M337.29,92.87c-1.79,5.14-6.49,8.76-11.44,10.62-6.16,2.33-12.9,2-19.36,1.79-11.1-.41-22.47,0-32.95,4a42.55,42.55,0,0,0-7.91,4,29.66,29.66,0,0,0-6.92,5.9c-.5.61.27,1.5.87.92a46.48,46.48,0,0,1,6.26-5.29,41.65,41.65,0,0,1,7-3.77,59.55,59.55,0,0,1,15.94-4,111.28,111.28,0,0,1,17.22-.57c6.46.2,13.21.42,19.38-1.82,5.51-2,10.44-5.9,12.25-11.65.07-.21-.26-.3-.33-.09Z" transform="translate(-55.35 -29.79)"/></g><g class="cls-13"><path class="cls-4" d="M258.31,118.83a104.36,104.36,0,0,1,7.72-7.45,66.2,66.2,0,0,1,8.8-6.26,67.44,67.44,0,0,1,19.88-8,65,65,0,0,1,12-1.55c.64,0,.66-1,0-1a65.62,65.62,0,0,0-21.4,4.31,68,68,0,0,0-18.78,10.86,50.27,50.27,0,0,0-8.63,8.74c-.16.21.18.48.36.29Z" transform="translate(-55.35 -29.79)"/></g><g class="cls-13"><path class="cls-4" d="M192.61,159.42a27.8,27.8,0,0,1,22.48-14.29,25.52,25.52,0,0,1,3.81.07c1.33.12,2.61.47,3.93.65.56.08.59-.73.14-.91a13.7,13.7,0,0,0-3.54-.68,24.79,24.79,0,0,0-3.55-.13,27.58,27.58,0,0,0-7,1.17,28.22,28.22,0,0,0-12,7.24,23.46,23.46,0,0,0-4.59,6.65c-.12.25.23.48.37.23Z" transform="translate(-55.35 -29.79)"/></g><g class="cls-13"><path class="cls-4" d="M191,167.82a25.69,25.69,0,0,0,16.38,2.91,29.65,29.65,0,0,0,15.33-6.93,25.64,25.64,0,0,0,6-7.58c.41-.79-.78-1.5-1.18-.71a26,26,0,0,1-11.41,11.27,28.9,28.9,0,0,1-15.84,3.1,25.54,25.54,0,0,1-8.93-2.56c-.33-.16-.63.31-.3.5Z" transform="translate(-55.35 -29.79)"/></g><g class="cls-13"><path class="cls-4" d="M196,176.83a46.74,46.74,0,0,0,19,1.73,30.8,30.8,0,0,0,14.8-5.9,24.34,24.34,0,0,0,3.22-2.95,16.31,16.31,0,0,0,2.67-3.57.66.66,0,0,0-1.13-.68c-.75,1-1.41,2.12-2.25,3.09a24.55,24.55,0,0,1-2.56,2.54,27.24,27.24,0,0,1-6.39,4,36.12,36.12,0,0,1-16.82,2.79,73.64,73.64,0,0,1-10.45-1.48.21.21,0,0,0-.11.4Z" transform="translate(-55.35 -29.79)"/></g><g class="cls-13"><path class="cls-4" d="M223.75,137.53a71.48,71.48,0,0,1,4.47-39.66A67.9,67.9,0,0,1,269.46,60c.89-.3.55-1.71-.35-1.42a68.6,68.6,0,0,0-46.75,56.17,66.63,66.63,0,0,0,.86,22.88c.08.34.59.21.53-.13Z" transform="translate(-55.35 -29.79)"/></g><path class="cls-4" d="M221.13,137.18c-4.53-3.13-10.64-3.76-15.92-2.56a21.74,21.74,0,0,0-13.7,9.79,36.28,36.28,0,0,0-5.39,19.69,27.26,27.26,0,0,0,6.36,17.26,22.2,22.2,0,0,0,7.78,5.87c3.52,1.56,7.64,2.26,11.31.81.84-.33.28-1.67-.57-1.45-6,1.54-12-1-16.23-5.23a25,25,0,0,1-7-15.47A35,35,0,0,1,191.71,147a23,23,0,0,1,5.4-7,20.06,20.06,0,0,1,6.72-3.72,22.26,22.26,0,0,1,17,1.38.3.3,0,0,0,.31-.52Z" transform="translate(-55.35 -29.79)"/><path class="cls-4" d="M220.94,135.43a71.51,71.51,0,0,1-3.49-15.12,64.21,64.21,0,0,1,.2-15.49,59.46,59.46,0,0,1,10.84-26.94,60.36,60.36,0,0,1,20.33-17.62,51,51,0,0,1,25.41-6.2c8.36.26,16.9,2.88,23.17,8.59a28.72,28.72,0,0,1,2.26,2.29c.79.88,2.11-.38,1.33-1.26-6-6.69-14.51-10.27-23.31-11.2a51.15,51.15,0,0,0-26.5,4.6A61.46,61.46,0,0,0,229.26,74a60.08,60.08,0,0,0-12.59,26.75,61.81,61.81,0,0,0-1,15.89,54.34,54.34,0,0,0,3.17,15.55c.45,1.17.93,2.33,1.46,3.47.16.33.72.11.6-.23Z" transform="translate(-55.35 -29.79)"/><path class="cls-4" d="M343.64,112.1c-5.56,7.78-15.31,10.57-24.46,10.67-11.77.12-23-4.16-34.64-5.5-5.67-.66-12.18-.8-16.76,3.17-.95.83.4,2.24,1.35,1.42,4-3.45,9.78-3.23,14.69-2.72,6.1.64,12.08,2.07,18.08,3.29a77,77,0,0,0,16.89,2,39.59,39.59,0,0,0,13.7-2.67,24.14,24.14,0,0,0,11.73-9.32c.23-.37-.33-.7-.58-.35Z" transform="translate(-55.35 -29.79)"/><path class="cls-4" d="M344.48,111.77a46,46,0,0,1,1.38,12.2,40.77,40.77,0,0,1-2.25,12,42.8,42.8,0,0,1-2.89,6.36.57.57,0,0,0,1,.58,39.29,39.29,0,0,0,4.76-24.31,30.82,30.82,0,0,0-1.59-7,.2.2,0,0,0-.39.1Z" transform="translate(-55.35 -29.79)"/><path class="cls-4" d="M341.72,92.31a53.19,53.19,0,0,1,8.11,20.45,54.51,54.51,0,0,1-.68,22,50.87,50.87,0,0,1-4.32,11.63c-.46.88.87,1.69,1.33.8a52.06,52.06,0,0,0,5.72-21.86,54.87,54.87,0,0,0-3.72-22.21,48.93,48.93,0,0,0-6.09-11.1c-.14-.2-.49,0-.35.26Z" transform="translate(-55.35 -29.79)"/><path class="cls-21" d="M230.68,310a219,219,0,0,0,23.54,11.14q12,5,24.53,8.79c4.69,1.44,9.42,2.7,14.15,4,.77.21,1.11-1,.33-1.18a232.21,232.21,0,0,1-24.9-7.22c-8.22-2.82-16.3-6-24.23-9.6-4.44-2-8.81-4.16-13.19-6.29-.26-.13-.49.25-.23.39Z" transform="translate(-55.35 -29.79)"/><path class="cls-21" d="M295.63,234.35c-.63,11.06,3.13,21.78,2.83,32.82-.29,10.27-4.07,20-8.81,29-2.72,5.14-5.75,10.11-8.86,15-.51.8.78,1.58,1.28.76,5.34-8.9,10.79-17.84,14.19-27.7a57.23,57.23,0,0,0,3.1-14.8,71.68,71.68,0,0,0-1.26-16.21c-1-6.26-2.24-12.54-2-18.9a.22.22,0,0,0-.43,0Z" transform="translate(-55.35 -29.79)"/><path class="cls-21" d="M239.51,187.53q.93,10.16,1.87,20.32c.31,3.39.63,6.77.94,10.16.23,2.46.13,5.57,2.5,7.06,3.75,2.37,8.94-1.13,12.47,1.89a19.81,19.81,0,0,1,2.63,3.14c.92,1.2,1.85,2.41,2.79,3.6,1.9,2.43,3.82,4.84,5.74,7.26,4.26,5.37,8.55,10.72,12.73,16.16.58.75,1.65-.27,1.07-1-7.35-9.5-15-18.8-22.4-28.23a9,9,0,0,0-2.9-2.64,7.82,7.82,0,0,0-3-.72c-2.17-.12-4.34.41-6.51.25a4.19,4.19,0,0,1-2.57-.95,5.7,5.7,0,0,1-1.41-3.81c-.37-3.3-.72-6.61-1.08-9.91q-1.22-11.28-2.45-22.56c0-.26-.44-.27-.41,0Z" transform="translate(-55.35 -29.79)"/><path class="cls-21" d="M282.37,257.36A130.13,130.13,0,0,1,292.9,229c1.22-2.47,2.51-4.9,3.84-7.31l-.6.33,8.12-.08a.72.72,0,0,0,.69-.88,62,62,0,0,0-12.82-27.77c-.6-.75-1.68.29-1.08,1A61.52,61.52,0,0,1,302,215a64.69,64.69,0,0,1,1.59,6.42l.69-.87c-2.7,0-5.4.08-8.11.12a.7.7,0,0,0-.59.33,144.7,144.7,0,0,0-11.8,28.11c-.79,2.67-1.48,5.37-2,8.1-.09.42.55.61.65.18Z" transform="translate(-55.35 -29.79)"/><path class="cls-21" d="M281.78,257.34a70.87,70.87,0,0,1,.19,21.22,66.64,66.64,0,0,1-6.22,19.81,79.83,79.83,0,0,1-6.22,10.3c-.49.7.64,1.36,1.13.68a68.85,68.85,0,0,0,9.71-19.17,65.56,65.56,0,0,0,3.18-20.8,69,69,0,0,0-1.25-12.17c-.06-.34-.57-.21-.52.13Z" transform="translate(-55.35 -29.79)"/><path class="cls-21" d="M289,267.89a1.65,1.65,0,0,0,0-3.3,1.65,1.65,0,0,0,0,3.3Z" transform="translate(-55.35 -29.79)"/><path class="cls-21" d="M285,282.84v.33a1.19,1.19,0,0,0,.15.64,1.21,1.21,0,0,0,.34.53,1.82,1.82,0,0,0,1.16.48l.44-.06a1.63,1.63,0,0,0,.73-.42l.26-.33a1.65,1.65,0,0,0,.22-.84v-.33a1.13,1.13,0,0,0-.14-.63,1.19,1.19,0,0,0-.34-.54,1.31,1.31,0,0,0-.53-.34,1.28,1.28,0,0,0-.64-.14l-.44.06a1.69,1.69,0,0,0-.72.42l-.26.34a1.62,1.62,0,0,0-.23.83Z" transform="translate(-55.35 -29.79)"/><path class="cls-21" d="M280.07,304.08a1.65,1.65,0,0,0,0-3.3,1.65,1.65,0,0,0,0,3.3Z" transform="translate(-55.35 -29.79)"/><rect class="cls-22" y="321.97" width="593.46" height="16.14"/><polygon class="cls-23" points="593.46 323.63 0 323.63 34.82 301.53 616.74 301.53 593.46 323.63"/><polygon class="cls-3" points="593.46 323.63 616.74 301.53 617.64 317.82 593.46 338.11 593.46 323.63"/><path class="cls-3" d="M318.57,340c1.86,2.28,5.68,4.43,8.51,5.64A52.36,52.36,0,0,0,340.27,349c18,2.62,36.81.38,54.65-2.58,1.59-.26,3.17-.54,4.75-.82l12.19-2.21c2.18-.4,3-8.5,1.11-9.5s-5.73,4.53-10,4.74c-7.29.36-14.55,1.21-21.85,1.43-2.85.09-15.71,1.64-16.95-2.22-1-3.13,10.29-3.85,12.12-4.19L390.56,331a8.62,8.62,0,0,0,7.12-8.5c0-1.77-.71-3.17-2.74-3.26-19.69-.86-58,4.1-76.95,10.46C317,330,316.66,337.72,318.57,340Z" transform="translate(-55.35 -29.79)"/><path class="cls-22" d="M318.57,334.06c1.86,2.28,5.68,4.43,8.51,5.64A52.36,52.36,0,0,0,340.27,343c18,2.62,36.81.37,54.65-2.58,1.59-.26,3.17-.54,4.75-.82l12.19-2.21a2.12,2.12,0,0,0,.21-4.11,29.51,29.51,0,0,0-9.1-.65c-7.29.36-14.55,1.21-21.85,1.43-2.85.09-15.71,1.64-16.95-2.22-1-3.13,10.29-3.85,12.12-4.19l18-3.38a3.68,3.68,0,0,0,2.86-2.4c.72-2.17-.86-4.92-16.21-2.52-19.48,3-40,1.85-58.91,8.16C316.77,329.29,316.66,331.74,318.57,334.06Z" transform="translate(-55.35 -29.79)"/><path class="cls-3" d="M352.66,313.59c1-.08,44.3-15.46,44.3-15.46l22.2,8.34L372.65,323Z" transform="translate(-55.35 -29.79)"/><polygon class="cls-22" points="297.31 283.8 298.72 288.71 317.36 297.8 317.29 293.21 297.31 283.8"/><polygon class="cls-3" points="317.29 293.21 363.81 276.68 364.47 280.56 317.36 297.8 317.29 293.21"/><polygon class="cls-3" points="264.94 303.54 279.1 274.65 283.05 275.64 293.26 285.27 293.59 298.89 268.89 304.53 264.94 303.54"/><polygon class="cls-22" points="268.89 304.53 283.05 275.64 297.21 286.27 297.55 299.88 268.89 304.53"/><path class="cls-22" d="M344.67,213.13l-9.22,3s-26.68,33.54-9.88,70.39c0,0,11.2,35.53,48.08,37.86l-6.25-20.26-7.25-17.26s-14.49,11.29-19.76,1c0,0-11.53-23.24-4.61-34.53,0,0,8.56-13.61,20.75-9L372,240.69,361.8,209.15Z" transform="translate(-55.35 -29.79)"/><path class="cls-3" d="M347.49,224l-8.32,2.7s-24.08,30.27-8.92,63.54c0,0,10.11,32.07,43.4,34.17L368,306.08l-6.54-15.58s-13.08,10.19-17.83.9c0,0-10.41-21-4.17-31.17,0,0,7.73-12.29,18.73-8.1l14-3.29L363,220.37Z" transform="translate(-55.35 -29.79)"/><path class="cls-24" d="M363,220.37,347.49,224,344.16,225a1.36,1.36,0,0,1,.87,1c2.09,8,4,16,6.16,23.94q.19.73.42,1.47a12.48,12.48,0,0,1,6.58.7l14-3.29Z" transform="translate(-55.35 -29.79)"/><path class="cls-3" d="M354.36,242.69c-.12-.75,3.18-1.9,7.38-2.59s7.69-.63,7.81.11-3.18,1.9-7.38,2.59S354.48,243.43,354.36,242.69Z" transform="translate(-55.35 -29.79)"/><polygon class="cls-3" points="299.01 212.93 314.2 210.45 317.24 226.22 302.03 228.6 299.01 212.93"/><path class="cls-22" d="M357.38,258.4c-.12-.75,3.19-1.9,7.38-2.59s7.7-.63,7.82.11-3.19,1.9-7.39,2.59S357.5,259.14,357.38,258.4Z" transform="translate(-55.35 -29.79)"/><path class="cls-3" d="M371.29,240.3c-.48-.58,1.76-3.29,5-6.06s6.27-4.54,6.75-4-1.75,3.28-5,6.05S371.77,240.87,371.29,240.3Z" transform="translate(-55.35 -29.79)"/><polygon class="cls-3" points="315.96 210.53 327.71 200.51 338.38 212.45 326.56 222.39 315.96 210.53"/><path class="cls-22" d="M381.92,252.19c-.49-.58,1.75-3.29,5-6.05s6.27-4.55,6.75-4-1.76,3.28-5,6.05S382.4,252.76,381.92,252.19Z" transform="translate(-55.35 -29.79)"/><path class="cls-3" d="M387.65,229.2c.73,1.79-6.82,6.59-16.86,10.73S352,246,351.31,244.21s6.82-6.59,16.86-10.73S386.93,227.42,387.65,229.2Z" transform="translate(-55.35 -29.79)"/><polygon class="cls-3" points="332.27 199.33 295.92 214.33 290.52 201.05 326.87 186.04 332.27 199.33"/><path class="cls-22" d="M382.32,216.07c.72,1.78-6.83,6.58-16.86,10.73s-18.76,6-19.49,4.27,6.83-6.58,16.87-10.73S381.6,214.29,382.32,216.07Z" transform="translate(-55.35 -29.79)"/><polygon class="cls-3" points="319.29 188.37 297.35 197.43 281.17 157.59 303.11 148.53 319.29 188.37"/><path class="cls-3" d="M358.63,178.36c.67,1.65-3.75,5-9.87,7.57s-11.63,3.23-12.3,1.58,3.74-5,9.87-7.57S358,176.7,358.63,178.36Z" transform="translate(-55.35 -29.79)"/><path class="cls-3" d="M374.48,217.47c.67,1.65-3.75,5-9.87,7.57s-11.63,3.23-12.31,1.58,3.75-5.05,9.87-7.57S373.8,215.81,374.48,217.47Z" transform="translate(-55.35 -29.79)"/><path class="cls-22" d="M357.05,179c.58,1.42-3.21,4.32-8.46,6.49s-10,2.78-10.55,1.36,3.21-4.33,8.46-6.5S356.48,177.59,357.05,179Z" transform="translate(-55.35 -29.79)"/><path class="cls-25" d="M356.49,178.52c.47,1.14-3.22,3.75-8.24,5.82s-9.46,2.82-9.93,1.68,3.23-3.75,8.25-5.82S356,177.38,356.49,178.52Z" transform="translate(-55.35 -29.79)"/><polygon class="cls-22" points="298.84 150.32 284.67 156.17 271.94 124.83 286.11 118.98 298.84 150.32"/><path class="cls-3" d="M341.5,148.85c.36.89-2.52,2.92-6.44,4.54s-7.38,2.2-7.74,1.31,2.52-2.92,6.43-4.54S341.13,148,341.5,148.85Z" transform="translate(-55.35 -29.79)"/><path class="cls-22" d="M338.28,150.18c.2.48-1.38,1.59-3.51,2.47s-4,1.21-4.23.72,1.37-1.6,3.51-2.48S338.08,149.69,338.28,150.18Z" transform="translate(-55.35 -29.79)"/><polygon class="cls-22" points="345.13 277.76 320.47 284.95 317.73 274.4 342.38 267.22 345.13 277.76"/><path class="cls-3" d="M397.77,297.11c.32,1.11-4.94,3.63-11.75,5.62s-12.59,2.68-12.91,1.57,4.94-3.64,11.75-5.62S397.45,296,397.77,297.11Z" transform="translate(-55.35 -29.79)"/><path class="cls-22" d="M400.47,307.67c.32,1.11-4.94,3.63-11.75,5.61s-12.58,2.69-12.91,1.57,4.94-3.63,11.75-5.61S400.15,306.55,400.47,307.67Z" transform="translate(-55.35 -29.79)"/><path class="cls-7" d="M387,300.72c.11.37-1.63,1.2-3.88,1.86s-4.17.89-4.28.52,1.64-1.2,3.89-1.86S386.89,300.35,387,300.72Z" transform="translate(-55.35 -29.79)"/><path class="cls-7" d="M395.14,297.49c.09.32-1.43,1.05-3.41,1.63s-3.64.78-3.73.45,1.43-1.05,3.4-1.62S395,297.17,395.14,297.49Z" transform="translate(-55.35 -29.79)"/><ellipse class="cls-22" cx="290.51" cy="177.48" rx="10.91" ry="11"/><ellipse class="cls-26" cx="291.69" cy="178.44" rx="10" ry="10.08"/><ellipse class="cls-22" cx="304.5" cy="279" rx="6.38" ry="6.43"/><ellipse class="cls-26" cx="305.13" cy="279.63" rx="5.84" ry="5.89"/><path class="cls-22" d="M351.45,207.76a4.18,4.18,0,1,1-4.61-3.75A4.21,4.21,0,0,1,351.45,207.76Z" transform="translate(-55.35 -29.79)"/><ellipse class="cls-27" cx="347.69" cy="208.53" rx="3.82" ry="3.85" transform="translate(-55.59 -29.4) rotate(-0.07)"/><path class="cls-3" d="M347.89,281.48c1-.09,44.17-16.86,44.17-16.86l22.31,9.58-46.38,18Z" transform="translate(-55.35 -29.79)"/><path class="cls-28" d="M409.15,272l-.72-.31-34.8.1-5.31,2.05Q388.72,272.71,409.15,272Z" transform="translate(-55.35 -29.79)"/><path class="cls-28" d="M405,277.86l7.81-3q-26.79.93-53.55,2.46c-6.27,2.39-11,4.17-11.34,4.2l.7.37C367.36,280.33,386.16,278.94,405,277.86Z" transform="translate(-55.35 -29.79)"/><polygon class="cls-22" points="292.54 251.69 294 257.2 312.75 267.58 312.63 262.44 292.54 251.69"/><polygon class="cls-3" points="312.63 262.44 359.02 244.41 359.73 248.76 312.75 267.58 312.63 262.44"/><polygon class="cls-3" points="273.84 307.52 288 278.63 291.95 279.63 302.16 289.26 302.49 302.87 277.79 308.52 273.84 307.52"/><polygon class="cls-22" points="277.79 308.52 291.95 279.63 306.11 290.26 306.44 303.87 277.79 308.52"/><path class="cls-5" d="M345.08,328.83l5.27,5.61s1.6,13.4-3.81,17.12-6.58-7.69-6.58-7.69.46-8.56,1.27-13.81A2.24,2.24,0,0,1,345.08,328.83Z" transform="translate(-55.35 -29.79)"/><path class="cls-5" d="M309.35,333.12c1.06.16,17.59-8.73,17.59-8.73L343.21,318l.86,2.56-12.83,8.82,9.44,3.32,10.64,2.23-.57,3.79L340,338.36l10.88,2.89-.64,3L340,343.87l10.48,1.4-.74,2.89-9.94-.59,7.95,2.38-.54,3.87-18.49-4.22-20.61-9.18Z" transform="translate(-55.35 -29.79)"/><path class="cls-5" d="M316.53,331.23c1.1,4.88,6.85,9.89,5.13,13.59-16.81-.1-68.76-6.61-80.88-6.75-30.45-.35-34.68-14.24-34.68-14.24l11.22-15.2A310.8,310.8,0,0,0,254,318.27C256.7,318.8,279.81,323.77,316.53,331.23Z" transform="translate(-55.35 -29.79)"/><path class="cls-6" d="M288.68,319.93c-12.29-2.55-21.58-4.51-27.22-5.7l-6.38-1.33c-8.66-1.71-16.58-3.72-22.77-5.44.76-8.15,2-18.57,3.21-28.78,3.54-29.93,9.81-48.7,8.42-55.5-4-19.71-29.27-41-36.33-6.45-1.58,7.69-3.28,11.2-3.61,25.18-.08,3.28-.16,6.75-.27,10.45-.36,12.43-1.29,22.5-2.28,33.16s-2,21.79-2.54,36.09c-.21,5.82,2.17,10.68,6.53,13.35a14.79,14.79,0,0,0,6,2c6,3.47,15.14,6.4,29.26,6.56,5,.06,17.92,1.33,31.8,2.72Q280.49,333,288.68,319.93Z" transform="translate(-55.35 -29.79)"/><path class="cls-7" d="M345.08,328.83l5.27,5.61s1.6,13.4-3.81,17.12-6.58-7.69-6.58-7.69.46-8.56,1.27-13.81A2.24,2.24,0,0,1,345.08,328.83Z" transform="translate(-55.35 -29.79)"/><path class="cls-7" d="M309.35,333.12c1.06.16,17.59-8.73,17.59-8.73L343.21,318l.86,2.56-12.83,8.82,9.44,3.32,10.64,2.23-.57,3.79L340,338.36l10.88,2.89-.64,3L340,343.87l10.48,1.4-.74,2.89-9.94-.59,7.95,2.38-.54,3.87-18.49-4.22-20.61-9.18Z" transform="translate(-55.35 -29.79)"/><path class="cls-7" d="M316.53,331.23q-8.31-1.68-15.66-3.2-3.08,7.44-6,14.93c11.06,1,21,1.82,26.8,1.86C323.38,341.12,317.63,336.11,316.53,331.23Z" transform="translate(-55.35 -29.79)"/><path class="cls-21" d="M235.27,309c8.61,2.37,17.24,4.67,25.87,7l3.61,1a21.53,21.53,0,0,0,3.62.82c.34,0,.51-.52.19-.67a18.43,18.43,0,0,0-3.07-.94l-3.26-.84-6.52-1.68-12.91-3.32c-2.46-.63-4.92-1.24-7.37-1.85a.29.29,0,0,0-.16.55Z" transform="translate(-55.35 -29.79)"/><path class="cls-21" d="M232.21,302.32c1.94-7.6,3.1-15.4,4.27-23.15,1.37-9,2.55-18.08,3.83-27.12.71-5,1.44-10,2.26-15.05.11-.71-1-1-1.09-.3-1.35,9-2.53,17.92-3.71,26.89-1.15,8.79-2.28,17.58-3.68,26.32-.66,4.12-1.37,8.23-2.17,12.33,0,.18.24.26.29.08Z" transform="translate(-55.35 -29.79)"/><g class="cls-29"><path class="cls-30" d="M166.62,295.28c-5.42-4.8-11.17-13.51-10.84-23.4l.65-43H142.16l1.35,42.78c.42,7.72-3.52,13.05-8,18.23-10.42,11.91-15.62,19.12-17.07,34.55-1.29,13.87,19.2,16.66,33.41,16.41,19.43-.33,38.91-1.05,27.46-31.27C177.66,305.4,172.44,300.44,166.62,295.28Z" transform="translate(-55.35 -29.79)"/><path class="cls-31" d="M159.42,291.78c-4-5.37-6.09-12-6.09-20.28,0-11.29,1.13-37.52,1.13-37.52H144.13c.36,6.81,1.61,35.16,1.28,42.56-.58,13.21-6.76,16.46-12.3,21.35-8,7-10.1,19.36-10.67,26.22-.23,2.72.39,5.55,4,8.51s11.75,5.64,23.23,5.37c16.49-.38,29.58-5.35,29.58-12.56,0-7.81-5.81-19.75-11.92-25.2A59.3,59.3,0,0,1,159.42,291.78Z" transform="translate(-55.35 -29.79)"/><path class="cls-32" d="M168.72,305.52c-6.7,2.48-36.08-.23-36.33-.87-.64-1.63-4.3,5-4.5,5.63-1.18,3.88-2.57,10.18-2,14.44.74,5.63,5.63,6.8,8.9,7.53a67.12,67.12,0,0,0,27.37.28c2.81-.54,13.39-1.92,13.39-8.24C175.54,319.64,172.06,308.58,168.72,305.52Z" transform="translate(-55.35 -29.79)"/><ellipse class="cls-33" cx="94.35" cy="276.67" rx="19.43" ry="4.63"/><path class="cls-3" d="M157.07,232.49l.74-9.23H141l.52,9.27h0a.33.33,0,0,0,0,.13c0,.73,3.5,1.32,7.81,1.32s7.68-.52,7.68-1.24C157,232.68,157.12,232.55,157.07,232.49Z" transform="translate(-55.35 -29.79)"/><path class="cls-34" d="M157.81,223.26H155c0,2.5-.05,7.81,0,10.32h0c1.35-.24,1.8-.41,2-.67a1.06,1.06,0,0,0,.14-.42Z" transform="translate(-55.35 -29.79)"/><path class="cls-34" d="M141.73,223.26H141l.52,9.27h0a.33.33,0,0,0,0,.13c0,.23.35.45,1,.63C142.24,230.88,141.91,225.68,141.73,223.26Z" transform="translate(-55.35 -29.79)"/><path class="cls-23" d="M157.81,223.22c0,.8-3.76,1.45-8.4,1.45S141,224,141,223.22s3.76-1.45,8.41-1.45S157.81,222.42,157.81,223.22Z" transform="translate(-55.35 -29.79)"/><path class="cls-35" d="M156.37,223.47c0,.66-3.12,1.2-7,1.2s-7-.54-7-1.2,3.12-1.2,7-1.2S156.37,222.81,156.37,223.47Z" transform="translate(-55.35 -29.79)"/></g><g class="cls-29"><path class="cls-23" d="M534.25,270.82C528.7,266.39,525,266.58,525,253V205.39H504.83V253c-.52,11.59-8.62,17.65-16.87,24.27-8.57,6.87-11.47,17.54-11.47,28.27a39.15,39.15,0,1,0,78.3,0c0-11.72-5.38-21.58-13.88-29.3C538.75,274.29,536.43,272.56,534.25,270.82Z" transform="translate(-55.35 -29.79)"/><path class="cls-36" d="M531.21,272.44l0,0-1.37-.71c-8.35-4.86-7.15-15.77-7.15-15.77V209.22H506.74v46.72c-.67,10-7.23,15.35-14.24,21.4-7.85,6.78-13.13,16.74-13.13,27.28a36.27,36.27,0,1,0,72.54,0C551.91,290.71,542.54,278.62,531.21,272.44Z" transform="translate(-55.35 -29.79)"/><path class="cls-37" d="M487.69,291.3a30.12,30.12,0,1,0,55.9,0Z" transform="translate(-55.35 -29.79)"/><path class="cls-6" d="M544,292.35c0,2.66-12.73,4.82-28.43,4.82s-28.44-2.16-28.44-4.82,12.73-4.81,28.44-4.81S544,289.7,544,292.35Z" transform="translate(-55.35 -29.79)"/><path class="cls-3" d="M527.94,205.88l1.25-7.65H501l.88,7.7h.07a.26.26,0,0,0-.07.16c0,.86,5.87,1.57,13.1,1.57s12.89-.62,12.89-1.49C527.85,206.1,528,205.94,527.94,205.88Z" transform="translate(-55.35 -29.79)"/><path class="cls-34" d="M502.21,198.23H501l.88,7.7h.07a.26.26,0,0,0-.07.16c0,.27.59.53,1.61.75C503.07,204,502.51,201.1,502.21,198.23Z" transform="translate(-55.35 -29.79)"/><path class="cls-23" d="M529.19,198.18c0,.95-6.32,1.72-14.11,1.72s-14.1-.77-14.1-1.72,6.31-1.73,14.1-1.73S529.19,197.22,529.19,198.18Z" transform="translate(-55.35 -29.79)"/><path class="cls-35" d="M503.41,198.47c0-.79,5.23-1.43,11.67-1.43s11.68.64,11.68,1.43" transform="translate(-55.35 -29.79)"/></g><path class="cls-6" d="M140.07,271.5s6.05-.63,6.51-7.82c0,0,1.4,8.05,6.75,7.82,0,0-6.63.54-6.63,8.91C146.7,280.41,147.05,271.73,140.07,271.5Z" transform="translate(-55.35 -29.79)"/><path class="cls-6" d="M134.84,261.39s4.22-.44,4.55-5.46c0,0,1,5.62,4.7,5.46,0,0-4.62.38-4.62,6.22C139.47,267.61,139.71,261.55,134.84,261.39Z" transform="translate(-55.35 -29.79)"/><path class="cls-6" d="M505.53,246.82s7.73-.8,8.32-10c0,0,1.78,10.29,8.62,10,0,0-8.47.7-8.47,11.38C514,258.2,514.45,247.12,505.53,246.82Z" transform="translate(-55.35 -29.79)"/><path class="cls-6" d="M504,226.4s5.39-.56,5.8-7c0,0,1.25,7.18,6,7,0,0-5.9.49-5.9,7.94C509.93,234.34,510.24,226.61,504,226.4Z" transform="translate(-55.35 -29.79)"/><path class="cls-6" d="M521.34,200.76s4.75-.5,5.12-6.15c0,0,1.09,6.33,5.3,6.15,0,0-5.21.42-5.21,7C526.55,207.76,526.82,200.94,521.34,200.76Z" transform="translate(-55.35 -29.79)"/><path class="cls-6" d="M547.37,90.77s13.39-1.39,14.42-17.31c0,0,3.09,17.83,14.94,17.31,0,0-14.68,1.21-14.68,19.73C562.05,110.5,562.82,91.29,547.37,90.77Z" transform="translate(-55.35 -29.79)"/><path class="cls-6" d="M535.79,68.39s9.35-1,10.07-12.08c0,0,2.15,12.44,10.42,12.08,0,0-10.24.84-10.24,13.77C546,82.16,546.58,68.75,535.79,68.39Z" transform="translate(-55.35 -29.79)"/><path class="cls-6" d="M379.54,101s9.34-1,10.06-12.08c0,0,2.16,12.44,10.42,12.08,0,0-10.24.85-10.24,13.77C389.78,114.75,390.32,101.34,379.54,101Z" transform="translate(-55.35 -29.79)"/><path class="cls-6" d="M373.11,88.57S378.6,88,379,81.48c0,0,1.27,7.31,6.12,7.09,0,0-6,.5-6,8.09C379.12,96.66,379.44,88.79,373.11,88.57Z" transform="translate(-55.35 -29.79)"/><path class="cls-6" d="M125,136.74s9.35-1,10.07-12.08c0,0,2.16,12.45,10.42,12.08,0,0-10.24.85-10.24,13.78C135.21,150.52,135.75,137.11,125,136.74Z" transform="translate(-55.35 -29.79)"/><path class="cls-6" d="M198.82,66.73s5.25-.54,5.65-6.79c0,0,1.21,7,5.86,6.79,0,0-5.76.48-5.76,7.74C204.57,74.47,204.87,66.94,198.82,66.73Z" transform="translate(-55.35 -29.79)"/><path class="cls-6" d="M399.63,272.81s6.05-.63,6.51-7.82c0,0,1.4,8.05,6.75,7.82,0,0-6.63.55-6.63,8.91C406.26,281.72,406.61,273,399.63,272.81Z" transform="translate(-55.35 -29.79)"/><path class="cls-6" d="M394.4,262.7s4.22-.44,4.54-5.46c0,0,1,5.62,4.71,5.46,0,0-4.62.38-4.62,6.22C399,268.92,399.27,262.86,394.4,262.7Z" transform="translate(-55.35 -29.79)"/></g></g></svg>