<?xml version="1.0" encoding="utf-8"?>
<!-- Generator: Adobe Illustrator 24.3.0, SVG Export Plug-In . SVG Version: 6.00 Build 0)  -->
<svg version="1.1" id="Layer_1_xA0_Image_1_" xmlns="http://www.w3.org/2000/svg" xmlns:xlink="http://www.w3.org/1999/xlink"
	 x="0px" y="0px" viewBox="0 0 1200 1200" style="enable-background:new 0 0 1200 1200;" xml:space="preserve">
<style type="text/css">
	.st0{fill:#F3EFF8;}
	.st1{fill:#9F82D0;}
	.st2{fill:#DBD1ED;}
	.st3{fill:#BCA9DF;}
	.st4{fill:#EBE5F4;}
	.st5{fill:#673AB6;}
	.st6{fill:#FDCA7F;}
	.st7{fill:#FE5722;}
	.st8{fill:#311B91;}
	.st9{fill:#FDA940;}
	.st10{fill:#784719;}
</style>
<g>
	<path class="st0" d="M597.74,100.56c0-0.25,0.01-0.49,0.01-0.74c10.5,0,21,0,31.5,0c0,0.25,0.01,0.49,0.01,0.74
		c-1.16,1.21-2.7,1.18-4.18,1.19c-7.72,0.06-15.44,0.06-23.15,0C600.44,101.74,598.9,101.77,597.74,100.56z"/>
	<path class="st0" d="M113.32,584.25c0.25,0,0.49-0.01,0.74-0.01c1.21,1.16,1.18,2.7,1.19,4.18c0.06,7.72,0.06,15.43,0,23.15
		c-0.01,1.48,0.02,3.02-1.19,4.18c-0.25,0-0.49-0.01-0.74-0.01C113.32,605.25,113.32,594.75,113.32,584.25z"/>
	<path class="st0" d="M1112.94,584.99c0.25,0,0.49,0.01,0.74,0.01c0,10,0,20,0,30c-0.25,0-0.49,0.01-0.74,0.01
		c-1.12-1.04-1.16-2.44-1.18-3.81c-0.08-7.47-0.08-14.93,0-22.4C1111.78,587.44,1111.82,586.04,1112.94,584.99z"/>
	<path class="st1" d="M624.75,1100.18c-7.5,0-15,0-22.5,0c-0.22-0.51-0.1-0.9,0.37-1.2c7.25-1.15,14.5-1.15,21.76-0.01
		C624.85,1099.27,624.97,1099.67,624.75,1100.18z"/>
	<path class="st2" d="M593.25,1100.18c0.01-0.22,0-0.43-0.03-0.65c1.29-1.34,2.75-1.16,4.27-0.48c0.41,0.3,0.5,0.68,0.26,1.13
		C596.25,1100.18,594.75,1100.18,593.25,1100.18z"/>
	<path class="st3" d="M597.75,1100.18c-0.01-0.21-0.02-0.42-0.04-0.63c1.49-1.39,2.99-1.37,4.49-0.03c0.03,0.22,0.04,0.44,0.05,0.66
		C600.75,1100.18,599.25,1100.18,597.75,1100.18z"/>
	<path class="st3" d="M624.75,1100.18c0.01-0.22,0.02-0.44,0.05-0.66c1.28-1.32,2.71-1.14,4.21-0.46c0.4,0.3,0.48,0.68,0.24,1.12
		C627.75,1100.18,626.25,1100.18,624.75,1100.18z"/>
	<path class="st2" d="M629.25,1100.18c0.01-0.21,0.02-0.42,0.04-0.63c1.49-1.39,2.99-1.37,4.49-0.02c-0.03,0.22-0.04,0.43-0.03,0.65
		C632.25,1100.18,630.75,1100.18,629.25,1100.18z"/>
	<path class="st4" d="M1112.94,584.99c0,10.01,0,20.01,0,30.02c0.03,14.06-1.42,28-2.9,41.97c-4.04,38.12-12.91,75.09-25.61,111.18
		c-5.17,14.68-11.29,28.98-17.82,43.13c-11.42,24.73-24.93,48.24-40.28,70.7c-9.96,14.57-20.77,28.5-32.17,42.01
		c-12.16,14.42-25.28,27.91-38.91,40.87c-13.15,12.5-27.07,24.17-41.68,34.97c-0.46,0.34-1.15,0.37-1.73,0.54
		c-2.47-3.94-1.65-8.5-2.22-12.75c-3.34-24.93-9.73-48.94-20.37-71.8c-8.11-17.43-18.18-33.59-30.37-48.43
		c-18.41-22.44-40.36-40.75-65.11-55.8c-10.48-6.37-21.33-12.01-32.38-17.29c-14.3-6.42-28.96-11.8-44.09-15.9
		c-1.44-0.39-2.89-0.82-3.77-2.19c-0.69-1.41-0.54-2.93-0.54-4.42c-0.01-16.12,0.08-32.24-0.07-48.36c-0.04-3.77,1.23-6.3,4.26-8.51
		c18.81-13.74,34.06-30.74,46.08-50.68c11.64-19.31,18.79-40.22,22.35-62.41c0.28-1.75,0.38-3.52,2.15-4.53
		c6.84-3.19,13.16-6.91,17.73-13.32c9.22-12.92,9.41-29.84,0.11-42.72c-1.23-1.7-2.85-3.17-3.42-5.31c1.25-3.63,4.47-5.63,7.01-8.12
		c2.51-2.46,3.58-5.07,3.57-8.61c-0.06-24.12-0.73-48.19-4.61-72.06c-4.78-29.34-13.79-57.09-31.8-81.23
		c-18.04-24.17-42.12-39.73-71.17-46.89c-9.33-2.3-15.16-6.15-18.65-15.07c-3.22-8.23-7.85-15.9-11.71-23.89
		c-1.31-2.71-3.1-3.84-6.14-3.83c-22.37,0.08-44.77-0.6-67.11,0.23c-21.74,0.81-42.75,5.96-62.86,14.5
		c-19.4,8.23-36.88,19.47-52.64,33.38c-17.47,15.42-31.87,33.4-43.47,53.6c-14.5,25.25-23.63,52.31-26.86,81.28
		c-2.31,20.67-1.24,41.42-1.44,62.14c-0.02,2.34,1.23,3.92,2.69,5.55c2.64,2.95,6.24,5.06,7.82,8.93c-0.63,2.37-2.54,3.93-3.83,5.88
		c-12.63,19.07-6.21,43.32,14.24,53.52c1.33,0.67,2.71,1.25,4,2.01c1.6,0.93,1.87,2.5,2.12,4.15c2.68,17.8,7.81,34.88,15.84,50.97
		c6.88,13.79,15.55,26.43,25.76,38.07c8.21,9.36,17.58,17.36,27.4,24.88c2.35,1.8,3.71,3.78,3.7,6.89
		c-0.07,16.87-0.03,33.74-0.04,50.6c0,1.12,0,2.26-0.5,3.31c-1.03,1.68-2.86,1.87-4.5,2.32c-14.88,4.09-29.37,9.25-43.35,15.79
		c-21.18,9.46-40.99,21.25-59.22,35.59c-30.43,23.93-54.31,53.08-70.05,88.66c-10.7,24.18-17.09,49.47-19.76,75.74
		c-0.24,2.32-0.19,4.7-0.91,6.97c-5.54-3.33-10.45-7.52-15.46-11.54c-17.41-13.99-33.73-29.19-49.13-45.35
		c-12.71-13.33-24.62-27.34-35.79-42c-13-17.05-24.84-34.87-35.52-53.44c-9.77-16.97-18.47-34.5-26.16-52.53
		c-6.6-15.49-12.4-31.26-17.47-47.3c-6.49-20.51-11.51-41.43-15.19-62.61c-2.55-14.64-4.5-29.4-5.52-44.27
		c-0.61-8.81-1.48-17.59-1.39-26.43c0-10.5,0-21.01,0-31.51c-0.01-13.82,1.47-27.51,2.88-41.24c2.54-24.76,7.38-49.07,13.73-73.08
		c5.9-22.29,13.49-44.03,22.52-65.26c12.97-30.5,28.78-59.42,47.52-86.74c9.99-14.56,20.79-28.5,32.18-42.02
		c12.33-14.63,25.67-28.26,39.49-41.39c12.16-11.55,25.05-22.33,38.44-32.49c17.28-13.11,35.27-25.15,54.08-35.91
		c14.93-8.55,30.3-16.28,46.05-23.27c17.46-7.74,35.27-14.47,53.46-20.16c21.12-6.61,42.61-11.78,64.45-15.42
		c14.07-2.34,28.19-4.17,42.42-5.3c8.81-0.7,17.59-1.5,26.43-1.4c10.51,0,21.01,0,31.52,0c13.82,0,27.51,1.47,41.24,2.89
		c24.76,2.55,49.07,7.38,73.08,13.73c22.29,5.9,44.02,13.49,65.26,22.52c30.5,12.96,59.42,28.79,86.74,47.52
		c14.56,9.99,28.52,20.77,42.02,32.19c14.6,12.35,28.29,25.64,41.39,39.48c11.61,12.27,22.47,25.26,32.7,38.75
		c12.95,17.09,24.83,34.88,35.51,53.45c9.76,16.97,18.49,34.49,26.16,52.54c6.49,15.27,12.27,30.78,17.2,46.6
		c6.74,21.6,12.07,43.54,15.73,65.9c2.27,13.84,4.09,27.7,5.25,41.68C1112.28,566.87,1113.05,575.9,1112.94,584.99z"/>
	<path class="st5" d="M315.7,1001.23c-1.51-3.46-0.1-6.94,0.29-10.29c5.73-49.22,23.67-93.24,56.63-130.65
		c24.19-27.44,53.44-48.16,86.32-63.91c2.02-0.97,4.06-1.88,6.1-2.81c0.94,0.84,0.86,2.02,1.03,3.12
		c4.45,28.18,15.62,53.35,34.21,75.04c20.15,23.52,45.27,39.22,75.19,47.41c16.38,4.48,33.07,5.75,49.76,4.4
		c33.67-2.72,63.24-15.48,88.37-38.35c22.27-20.27,36.82-45.06,44.42-74.07c1.23-4.71,2.05-9.52,2.9-14.32
		c0.19-1.09,0.07-2.28,1.02-3.12c30.99,14.22,59.06,32.67,83.1,57.02c31.69,32.09,51.97,70.29,61.6,114.25
		c2.56,11.69,4.27,23.52,5.2,35.45c-20.15,15.25-41.44,28.7-63.7,40.64c-45.4,24.36-93.47,41.18-144.09,50.65
		c-23.22,4.34-46.66,6.92-70.28,7.85c-1.5,0.01-2.99,0.02-4.49,0.02c-1.5-0.01-3-0.02-4.49-0.03c-7.53,0-15.06,0-22.59,0
		c-1.5,0.01-3,0.02-4.49,0.03c-1.5-0.01-2.99-0.02-4.49-0.02c-77.56-3.28-150.39-23.63-218.55-60.71
		c-19.2-10.45-37.62-22.16-55.24-35.12C318.23,1002.82,316.94,1002.05,315.7,1001.23z"/>
	<path class="st6" d="M788.25,597.78c-2.8,3.14-2.12,7.26-2.81,10.9c-2.31,12.17-5.87,23.95-10.7,35.31
		c-8.99,21.14-21.84,39.73-38.16,55.87c-6.29,6.23-13.11,11.91-20.33,17.04c-1.73,1.23-2.42,2.55-2.41,4.64
		c0.09,18.24,0.09,36.47,0.11,54.71c-0.46,0.19-0.83,0.08-1.11-0.32c-0.94-1.75-0.67-3.66-0.67-5.51
		c-0.02-14.86-0.01-29.73-0.03-44.59c0-1.22,0.28-2.48-0.51-4.29c-29.84,19.5-62.56,29.5-98.13,29.47
		c-35.51-0.03-68.2-9.85-97.86-29.34c-1.29,1.32-0.78,2.63-0.78,3.79c-0.04,14.99-0.01,29.98-0.04,44.97c0,1.85,0.27,3.76-0.67,5.51
		c-0.29,0.4-0.67,0.49-1.11,0.27c0.03-18.23,0.02-36.47,0.11-54.7c0.01-2.11-0.73-3.38-2.44-4.62
		c-22.63-16.34-40.39-36.95-53.23-61.72c-8.84-17.05-14.5-35.17-17.17-54.19c-0.19-1.34-0.57-2.37-1.57-3.2
		c-0.71-4.17-1.17-8.36-1.16-12.6c0.03-9.58,0-19.15,0.02-28.73c0-1.73-0.13-3.49,0.48-5.16c1.96-2.19,3.13,0,4.17,0.99
		c5.6,5.36,11,10.92,16.5,16.37c0.97,0.96,1.82,2.07,3.21,2.91c0.89-1.22,0.5-2.59,0.5-3.84c0.03-28.87,0.02-57.74,0.02-86.61
		c0-6.69,0.01-6.7,6.17-8.76c43.39-14.46,86.95-28.41,130.41-42.66c29.56-9.7,59.15-19.31,88.75-28.91c6.18-2,5.97-1.84,10.51,2.99
		c8.54,9.11,17.06,18.24,25.57,27.38c12.51,13.43,25.14,26.75,37.54,40.28c2.39,2.61,3.11,5.46,3.1,8.87
		c-0.07,29.12-0.04,58.24-0.03,87.36c0,1.23-0.13,2.47,0.2,3.97c1.51-0.52,2.25-1.71,3.16-2.62c5.6-5.53,11.09-11.18,16.76-16.64
		c1.06-1.01,2.17-3.12,4.22-1.19c0.25,0.58,0.44,1.19,0.43,1.81c-0.1,14.57,0.89,29.16-0.77,43.7
		C788.48,597.06,788.34,597.42,788.25,597.78z"/>
	<path class="st7" d="M788.23,550.51c-7.73,8.14-15.47,16.29-23.56,24.81c-1.53-2.41-1.17-3.78-1.17-5.05
		c-0.03-30.48-0.05-60.97,0.03-91.45c0.01-2.54-0.65-4.41-2.43-6.3c-17.28-18.37-34.46-36.83-51.65-55.28
		c-4.6-4.93-9.18-9.88-13.66-14.91c-1.49-1.68-2.78-2.22-5.12-1.45c-39.68,13.05-79.4,25.98-119.11,38.94
		c-34.85,11.37-69.68,22.79-104.57,34.05c-2.79,0.9-3.55,2.12-3.54,4.95c0.11,30.36,0.07,60.72,0.07,91.08c0,1.33,0,2.67,0,4.85
		c-8.63-8.46-16.69-16.35-24.75-24.24c-5.48-4.06-10.21-8.86-14.33-14.27c-3.03-3.14-6.01-6.31-9.1-9.39
		c-1.21-1.21-1.95-2.4-1.92-4.22c0.25-17.61-0.46-35.23,0.46-52.83c1.63-31.45,10.49-60.87,25.68-88.31
		c23.97-43.32,58.17-75.45,104.63-93.69c22.32-8.76,45.56-12.77,69.53-12.68c18.74,0.07,37.48,0.06,56.22-0.04
		c2.58-0.01,3.98,0.7,5.15,3.12c5.43,11.23,11.2,22.29,16.62,33.52c1.24,2.57,2.91,3.57,5.56,4.15
		c28.03,6.11,52.56,18.6,72.09,40.03c15.6,17.12,25.69,37.29,32.43,59.25c7.34,23.91,10.42,48.47,11.34,73.39
		c0.41,11.12,0.34,22.23,0.46,33.34c0.03,2.18-0.61,3.75-2.18,5.25c-3.05,2.93-5.91,6.06-8.85,9.11
		C798.43,541.64,793.7,546.45,788.23,550.51z"/>
	<path class="st8" d="M713.35,776.45c0.22,0,0.42-0.06,0.6-0.19c13.27,3.9,26.46,8.04,39.2,13.48c2.95,1.26,5.86,2.62,8.79,3.94
		c-0.73,11.67-3.86,22.8-7.97,33.64c-6.87,18.13-16.75,34.4-29.88,48.79c-22.19,24.31-49.54,39.31-81.51,46.2
		c-13.87,2.99-28.07,3.44-42.06,2.18c-30.51-2.75-57.86-13.82-81.77-33.29c-19.16-15.61-33.4-34.86-43.16-57.38
		c-5.55-12.8-9.59-26.16-10.55-40.24c14.63-7.02,29.93-12.23,45.55-16.54c0.83-0.23,1.64-0.54,2.46-0.81
		c0.19,0.13,0.39,0.2,0.62,0.2c2,3.26,1.22,7.01,1.77,10.51c2.95,18.79,8.77,36.45,20.28,51.83c12.71,16.99,29.55,27.7,50.3,32.26
		c9.67,2.12,19.48,3.46,29.35,3.11c17.49-0.62,34.53-3.49,50.04-12.39c19.31-11.08,31.83-27.74,39.46-48.31
		c4.06-10.94,6.67-22.24,7.42-33.93C712.34,778.38,712.28,777.21,713.35,776.45z"/>
	<path class="st9" d="M424.44,536.23c5.12,4.42,9.82,9.24,14.33,14.27c0.01,12.53,0.1,25.05-0.04,37.58
		c-0.04,3.24,2.14,6.47,0.02,9.7C412.68,588.86,404.86,555.24,424.44,536.23z"/>
	<path class="st9" d="M788.23,550.51c4.51-5.03,9.22-9.86,14.33-14.27c19.47,19.41,11.75,52.63-14.31,61.55
		c-1.22-0.94-0.85-2.3-0.73-3.45C789.08,579.74,787.9,565.11,788.23,550.51z"/>
	<path class="st9" d="M713.35,776.45c-1.77,28.45-10.49,54.02-31.42,74.31c-13.16,12.76-29.31,19.57-47.21,22.48
		c-20.02,3.26-39.85,2.42-59.12-4.18c-27.02-9.25-44.21-28.51-54.17-54.72c-4.63-12.2-7.43-24.83-7.76-37.93
		c0.05-17.48,0.11-34.96,0.16-52.44c0-1.34,0-2.68,0-4.11c66.45,40.36,132.63,40.44,199.53-0.12
		C713.35,738.71,713.35,757.58,713.35,776.45z"/>
	<path class="st10" d="M513.63,549.94c0.05-13.91,11.19-25.01,25.03-24.93c13.8,0.08,24.76,11.28,24.71,25.25
		c-0.05,13.62-11.24,24.79-24.84,24.81C524.8,575.1,513.58,563.77,513.63,549.94z"/>
	<path class="st10" d="M713.35,550.21c-0.04,13.63-11.16,24.79-24.79,24.87c-13.7,0.08-24.98-11.27-24.95-25.09
		c0.04-13.92,11.15-25.04,24.98-24.98C702.41,525.07,713.39,536.25,713.35,550.21z"/>
</g>
</svg>
